<svg width="256" height="256" viewBox="0 0 256 256" fill="none" xmlns="http://www.w3.org/2000/svg">
<path d="M99.5479 41.1263C74.9888 48.579 47.2261 73.5986 47.2261 88.5037C47.2261 108.732 61.6413 124.17 93.6749 139.607C112.361 148.657 126.243 157.707 124.641 160.901C123.974 165.026 95.2766 165.691 95.2766 165.691C95.2766 165.691 80.728 167.023 75.923 175.008C71.1179 182.992 72.3192 193.373 72.3192 193.373C73.9208 208.811 72.3192 210.94 79.9272 216.929C87.5352 222.917 94.209 222.651 113.429 219.99C212.734 204.552 238.361 156.642 167.353 119.911C128.378 100.215 125.175 88.5037 159.344 88.5037C184.971 88.5037 189.242 83.1805 190.844 46.982C188.041 35.2707 186.039 33.2745 158.277 33.1414C139.59 33.1414 113.429 36.8677 99.5479 41.1263Z" fill="#4074C2"/>
</svg>
