<svg width="496" height="53" viewBox="0 0 496 53" fill="none" xmlns="http://www.w3.org/2000/svg">
<path d="M105.473 3.28458C103.473 4.88457 92.0726 39.6846 92.0726 42.6846C92.0725 46.8077 97.0726 47.1846 97.0726 47.1846C97.0726 47.1846 100.573 47.6846 102.073 47.1846C103.573 46.6846 104.406 44.3512 104.406 44.3512C105.34 42.0845 106.406 40.3512 106.94 40.3512C109.073 40.4845 110.94 42.7512 111.873 46.3512C113.073 51.4179 114.54 52.3512 120.806 52.3512C120.806 52.3512 123.906 52.5179 124.573 51.1846C125.24 49.8513 124.94 47.0179 124.94 47.0179C124.406 43.6845 124.573 42.6846 125.473 41.6845C127.573 39.6846 135.073 34.4845 136.406 29.6845C138.94 20.2179 133.606 12.4845 120.406 6.61791C110.006 1.95124 107.873 1.41791 105.473 3.28458ZM117.74 22.7512C121.34 25.6845 120.273 28.3512 115.74 28.3512C111.873 28.3512 110.94 27.0179 112.006 23.2845C112.94 19.6845 113.873 19.6845 117.74 22.7512Z" fill="#4074C2"/>
<path d="M13.4726 5.15128C7.3393 7.01795 0.405945 13.2846 0.405945 17.0179C0.405945 22.0846 4.00595 25.9513 12.0059 29.8179C16.6726 32.0846 20.1393 34.3512 19.7393 35.1512C19.5726 36.1846 12.4059 36.3512 12.4059 36.3512C12.4059 36.3512 8.7726 36.6846 7.5726 38.6846C6.37261 40.6846 6.67261 43.2846 6.67261 43.2846C7.0726 47.1513 6.67262 47.6846 8.57261 49.1846C10.4726 50.6846 12.1393 50.6179 16.9393 49.9513C41.7393 46.0846 48.1393 34.0846 30.4059 24.8846C20.6726 19.9513 19.8726 17.0179 28.4059 17.0179C34.8059 17.0179 35.8726 15.6846 36.2726 6.61795C35.5726 3.68461 35.0726 3.18461 28.1393 3.15128C23.4726 3.15128 16.9393 4.08462 13.4726 5.15128Z" fill="#4074C2"/>
<path d="M60.0059 5.01793C46.1393 9.95127 40.1393 25.1512 47.2059 37.6846C52.9393 47.9512 68.5393 51.5512 81.4726 45.6846C87.8726 42.7512 88.1393 41.6846 84.2726 35.5512C81.0726 30.3512 81.6059 30.4846 74.9393 32.4846C70.6726 33.8179 69.3393 33.6846 66.4059 31.8179C59.2059 27.1512 63.7393 17.6846 73.3393 17.6846C77.7393 17.6846 78.0059 17.2846 79.7393 8.8846C80.4059 5.2846 80.1393 4.61793 77.4726 3.81793C72.5393 2.61794 65.4726 3.01794 60.0059 5.01793Z" fill="#4074C2"/>
<path d="M200.54 7.41793C195.74 9.01793 191.34 11.2846 190.673 12.4846C188.895 15.6846 191.206 19.4179 197.073 33.5512C205.473 53.9512 204.406 52.8846 213.473 49.5512C215.573 48.6846 216.073 48.1846 215.206 43.9512C214.474 40.3753 214.406 40.3512 217.873 39.0179C222.673 37.0179 230.673 28.2179 231.873 23.8179C233.073 19.0179 230.14 11.5513 225.606 7.6846C220.406 3.41793 212.406 3.2846 200.54 7.41793ZM216.14 22.6179C216.406 23.5512 215.073 25.0179 213.206 25.8179C209.073 26.6846 209.906 26.0846 208.073 23.1846C207.073 21.1846 208.073 19.7846 212.073 20.1846C214.473 20.4512 215.74 21.8179 216.14 22.6179Z" fill="#4074C2"/>
<path d="M159.206 12.6179C153.74 19.9512 141.24 38.3512 142.573 41.6846C142.74 43.3512 143.473 44.6179 147.34 45.5512C152.94 46.7512 154.406 46.7512 155.206 45.4179C158.94 39.0179 159.74 38.6179 166.54 39.8179C172.673 41.0179 173.073 41.2846 173.473 45.4179C174.006 50.0846 174.406 50.3512 182.14 51.5512C186.806 52.0846 187.073 51.9512 187.073 48.3512C187.073 44.2179 182.54 21.4179 180.14 13.2846C178.406 7.68461 175.34 5.68461 168.406 5.68461C165.206 5.68461 163.473 7.01795 159.206 12.6179ZM168.673 29.4179C165.873 30.2179 165.573 28.1846 166.573 25.1846C166.573 25.1846 167.573 22.3513 169.073 23.0179C170.573 23.6846 170.573 26.1846 170.573 26.1846C170.573 28.1846 169.873 29.1512 168.673 29.4179Z" fill="#4074C2"/>
<path d="M362.357 6.78387C361.256 9.09607 366.178 45.3834 367.486 48.0834C369.285 51.7934 373.949 49.9514 373.949 49.9514C373.949 49.9514 377.316 48.8744 378.448 47.7704C379.579 46.6664 379.311 44.2024 379.311 44.2024C379.163 41.7564 379.366 39.7309 379.846 39.4983C381.824 38.6877 384.492 39.9131 386.903 42.7454C390.193 46.7814 391.92 46.9814 397.559 44.2474C397.559 44.2474 400.421 43.0454 400.439 41.5544C400.457 40.0641 398.951 37.6454 398.951 37.6454C397.017 34.8786 396.731 33.906 397.105 32.6136C398.122 29.8979 402.603 21.947 401.709 17.0462C399.859 7.42257 391.686 2.79027 377.249 3.26917C365.855 3.60657 363.703 4.05727 362.357 6.78387ZM381.887 18.9499C386.406 20.0191 386.61 22.884 382.53 24.8615C379.051 26.5482 377.629 25.7555 376.961 21.9308C376.23 18.2843 377.07 17.8771 381.887 18.9499Z" fill="#4074C2"/>
<path d="M410.8 20.4257C408.133 38.4257 408.133 39.6257 410.266 41.6254C412.266 43.4924 442.033 49.4924 444.533 47.8924C447.033 46.2924 446.533 44.4924 446.533 40.9923C446.533 40.9923 446.533 39.4923 445.533 36.9923C443.933 32.9925 436.033 31.9923 436.033 31.9923C430.033 31.059 425.893 31.7246 424.4 30.559C423.033 29.4923 425.066 24.559 426.133 17.759C427.2 10.8257 427.733 4.42567 427.333 3.35897C426.8 2.15897 424.433 0.492268 420.033 0.492268C420.033 0.492268 415.533 0.492268 415.033 2.49227C413.767 7.55657 410.8 20.4257 410.8 20.4257Z" fill="#4074C2"/>
<path d="M321.2 5.75897C311.066 11.0924 307.6 23.6257 313.066 35.6257C318 46.4254 332.133 50.1594 344.8 44.0254C352 40.559 355.066 35.0924 354.933 26.0257C354.8 6.95897 338.266 -2.90763 321.2 5.75897ZM339.6 21.8924C342.133 27.2257 338.933 32.159 332.8 32.159C327.333 32.159 325.2 30.159 325.2 24.8257C325.2 19.359 327.466 17.2257 333.2 17.759C336.8 18.0257 338.266 18.959 339.6 21.8924Z" fill="#4074C2"/>
<path d="M457.466 6.42567C452.4 7.89237 450.266 9.22567 449.733 11.359C448.933 14.959 461.6 47.3924 464.533 48.9924C467.3 50.5014 479.2 46.6924 486.4 41.4924C495.333 34.959 498 26.4257 494 17.0924C489.066 5.49237 474.933 1.35897 457.466 6.42567ZM480.4 22.2924C482 26.2924 480.533 27.9924 476.933 30.8257C476.933 30.8257 474.756 32.6305 473.033 31.9924C471.328 31.361 470.266 28.4257 470.266 28.4257C466.933 20.8257 467.2 20.159 473.733 20.159C477.866 20.159 479.866 20.8257 480.4 22.2924Z" fill="#4074C2"/>
<path d="M257.462 12.1684C257.785 19.1111 269.588 45.8564 271.343 46.6424C272.476 47.1504 275.224 47.2064 277.459 46.8304C280.878 46.2544 281.665 45.3104 283.235 40.179C283.235 40.179 284.048 34.5662 284.913 34.0826C285.778 33.599 288.758 39.2495 288.758 39.2495C292.404 44.0444 292.865 44.3724 297.795 43.1364C303.667 41.8774 303.777 41.7244 303.917 20.0672C303.863 13.3159 304.071 6.52037 304.178 4.74467C304.239 1.89497 303.822 1.82997 297.116 2.95857C289.49 4.24227 289.709 3.93496 289.22 13.0764C289.006 16.6278 288.765 16.8035 287.381 15.0083C285.185 12.4034 277.932 13.4891 276.337 16.8673C275.332 18.9294 274.849 18.4699 273.175 13.3433C273.175 13.3433 272.64 10.354 270.608 8.94146C268.257 7.30666 263.983 8.53566 263.983 8.53566C259.118 9.35456 257.406 10.9816 257.462 12.1684Z" fill="#4074C2"/>
</svg>
